<svg width="21" height="16" viewBox="0 0 21 16" fill="none" xmlns="http://www.w3.org/2000/svg">
<path d="M5.568 15.008C4.576 15.008 3.68 14.8693 2.88 14.592C2.09067 14.3147 1.46133 13.8827 0.992 13.296C0.522667 12.72 0.288 11.9787 0.288 11.072C0.288 10.8267 0.304 10.5493 0.336 10.24C0.378667 9.92 0.464 9.54667 0.592 9.12C0.72 8.68267 0.917333 8.176 1.184 7.6L3.136 8.352C2.98667 8.736 2.864 9.06133 2.768 9.328C2.68267 9.584 2.61867 9.81867 2.576 10.032C2.544 10.2347 2.528 10.4427 2.528 10.656C2.528 11.1147 2.65067 11.5093 2.896 11.84C3.14133 12.1707 3.49333 12.4213 3.952 12.592C4.42133 12.7733 4.98133 12.864 5.632 12.864C6.57067 12.864 7.29067 12.6987 7.792 12.368C8.29333 12.0373 8.63467 11.5573 8.816 10.928C8.99733 10.288 9.06667 9.50933 9.024 8.592L8.736 0.575999H11.008L11.264 8.448C11.2853 9.312 11.2107 10.1387 11.04 10.928C10.88 11.7067 10.5813 12.4053 10.144 13.024C9.71733 13.6427 9.13067 14.128 8.384 14.48C7.63733 14.832 6.69867 15.008 5.568 15.008ZM15.92 15.152C15.6427 15.152 15.3973 15.0507 15.184 14.848C14.9813 14.656 14.88 14.4213 14.88 14.144C14.88 13.8453 14.9813 13.5893 15.184 13.376C15.3973 13.1733 15.6427 13.072 15.92 13.072C16.208 13.072 16.4533 13.1733 16.656 13.376C16.8587 13.5893 16.96 13.8453 16.96 14.144C16.96 14.4213 16.8587 14.656 16.656 14.848C16.4533 15.0507 16.208 15.152 15.92 15.152ZM18.384 15.152C18.0853 15.152 17.8347 15.0507 17.632 14.848C17.44 14.656 17.344 14.4213 17.344 14.144C17.344 13.8453 17.44 13.5893 17.632 13.376C17.8347 13.1733 18.0853 13.072 18.384 13.072C18.6613 13.072 18.9013 13.1733 19.104 13.376C19.3173 13.5893 19.424 13.8453 19.424 14.144C19.424 14.4213 19.3173 14.656 19.104 14.848C18.9013 15.0507 18.6613 15.152 18.384 15.152ZM6.352 9.904C5.76533 9.904 5.28533 9.792 4.912 9.568C4.54933 9.344 4.28267 9.04533 4.112 8.672C3.94133 8.288 3.856 7.86667 3.856 7.408C3.856 6.88533 3.97333 6.32 4.208 5.712C4.44267 5.09333 4.83733 4.496 5.392 3.92L7.024 5.024C6.704 5.35467 6.45867 5.71733 6.288 6.112C6.11733 6.496 6.032 6.816 6.032 7.072C6.032 7.296 6.09067 7.47733 6.208 7.616C6.336 7.744 6.52267 7.808 6.768 7.808C6.97067 7.81867 7.184 7.776 7.408 7.68C7.632 7.584 7.89867 7.424 8.208 7.2C8.528 6.976 8.92267 6.67733 9.392 6.304C9.872 5.92 10.464 5.456 11.168 4.912C12.032 4.22933 12.768 3.664 13.376 3.216C13.984 2.768 14.5333 2.43733 15.024 2.224C15.5253 2 16.032 1.89867 16.544 1.92C17.1413 1.94133 17.6747 2.16533 18.144 2.592C18.6133 3.008 18.9227 3.632 19.072 4.464L17.216 5.008C17.1413 4.76267 17.0507 4.56 16.944 4.4C16.8373 4.22933 16.7147 4.10667 16.576 4.032C16.448 3.94667 16.304 3.904 16.144 3.904C15.952 3.904 15.7547 3.952 15.552 4.048C15.3493 4.144 15.1093 4.29867 14.832 4.512C14.5547 4.72533 14.208 4.99733 13.792 5.328C13.3867 5.65867 12.88 6.064 12.272 6.544C11.3973 7.23733 10.6613 7.808 10.064 8.256C9.46667 8.69333 8.95467 9.03467 8.528 9.28C8.112 9.51467 7.73333 9.68 7.392 9.776C7.06133 9.86133 6.71467 9.904 6.352 9.904ZM16.16 12.08C15.168 12.08 14.4 11.9787 13.856 11.776C13.3227 11.5733 12.9493 11.2587 12.736 10.832C12.5227 10.3947 12.4053 9.84533 12.384 9.184L12.048 0.575999H14.304L14.64 8.112C14.6613 8.50667 14.6933 8.82667 14.736 9.072C14.7787 9.30667 14.8587 9.488 14.976 9.616C15.0933 9.744 15.2587 9.82933 15.472 9.872C15.6853 9.91467 15.968 9.936 16.32 9.936C16.7893 9.936 17.152 9.90933 17.408 9.856C17.664 9.792 17.84 9.68533 17.936 9.536C18.0427 9.376 18.096 9.15733 18.096 8.88C18.096 8.53867 18.0267 8.144 17.888 7.696C17.76 7.23733 17.616 6.77867 17.456 6.32L19.536 5.712C19.6427 6 19.7493 6.33067 19.856 6.704C19.9733 7.07733 20.0693 7.46667 20.144 7.872C20.2187 8.26667 20.256 8.65067 20.256 9.024C20.256 9.55733 20.1707 10.0213 20 10.416C19.84 10.8 19.5893 11.1147 19.248 11.36C18.9173 11.6053 18.4907 11.7867 17.968 11.904C17.456 12.0213 16.8533 12.08 16.16 12.08Z" fill="#36AF6E"/>
</svg>
