<svg width="182" height="165" viewBox="0 0 182 165" fill="none" xmlns="http://www.w3.org/2000/svg">
<path opacity="0.18" d="M143.5 144.815C143.5 148.499 126.258 148.499 90.0287 148.499C57.8308 148.499 37.4951 148.499 37.4951 144.815C37.4951 141.131 58.4399 141.131 90.0287 141.131C124.977 141.131 143.5 141.582 143.5 144.815Z" fill="#D9F0FF"/>
<path d="M124.163 5.66406H68.7576C63.5406 5.66406 59.3114 9.90539 59.3114 15.1373V134.568C59.3114 139.799 63.5406 144.041 68.7576 144.041H124.163C129.38 144.041 133.609 139.799 133.609 134.568V15.1373C133.609 9.90539 129.38 5.66406 124.163 5.66406Z" fill="#A4A4A4"/>
<path d="M115.51 5.66406H60.1045C54.8875 5.66406 50.6583 9.90539 50.6583 15.1373V134.568C50.6583 139.799 54.8875 144.041 60.1045 144.041H115.51C120.727 144.041 124.956 139.799 124.956 134.568V15.1373C124.956 9.90539 120.727 5.66406 115.51 5.66406Z" fill="#D3D3D3"/>
<path d="M86.0498 138.729C82.8917 138.729 80.3202 136.15 80.3202 132.982C80.3202 129.815 82.8917 127.236 86.0498 127.236C89.208 127.236 91.7795 129.815 91.7795 132.982C91.7795 136.15 89.208 138.729 86.0498 138.729Z" fill="#909090"/>
<path d="M94.6185 11.1699H81.4323C81.0897 11.1699 80.8129 11.4476 80.8129 11.7911C80.8129 12.1347 81.0897 12.4123 81.4323 12.4123H94.6185C94.961 12.4123 95.2379 12.1347 95.2379 11.7911C95.2379 11.4476 94.961 11.1699 94.6185 11.1699Z" fill="#909090"/>
<path d="M78.4103 12.6241C78.1897 12.6241 77.9833 12.5394 77.8284 12.3794C77.7909 12.3371 77.7533 12.2947 77.7252 12.2523C77.697 12.21 77.6689 12.1629 77.6454 12.1112C77.6266 12.0594 77.6126 12.0123 77.5985 11.9559C77.5891 11.9041 77.5797 11.8476 77.5797 11.7959C77.5797 11.7394 77.5891 11.6829 77.5985 11.6312C77.6126 11.5794 77.6266 11.5276 77.6501 11.4759C77.6689 11.4241 77.697 11.377 77.7252 11.33C77.7533 11.2829 77.7909 11.2453 77.8284 11.2076C77.866 11.17 77.9082 11.1323 77.9504 11.1041C77.9974 11.0758 78.0443 11.0523 78.0959 11.0288C78.1475 11.01 78.1944 10.9911 78.2508 10.977C78.3587 10.9582 78.4713 10.9582 78.5745 10.977C78.6262 10.9911 78.6825 11.0052 78.7294 11.0288C78.781 11.0476 78.8232 11.0758 78.8702 11.1041C78.9171 11.1323 78.9546 11.17 78.9969 11.2076C79.0344 11.2453 79.0673 11.2876 79.1001 11.33C79.1283 11.377 79.1564 11.4241 79.1752 11.4759C79.194 11.5276 79.2127 11.5794 79.2221 11.6312C79.2362 11.6829 79.2409 11.7394 79.2409 11.7959C79.2409 11.8476 79.2409 11.9041 79.2268 11.9559C79.2127 12.0076 79.1987 12.0594 79.1752 12.1112C79.1564 12.1582 79.1283 12.21 79.1001 12.2523C79.072 12.2994 79.0344 12.3371 78.9969 12.3794C78.9546 12.4171 78.9124 12.4547 78.8702 12.4829C78.8232 12.5112 78.781 12.5347 78.7294 12.5582C78.6778 12.5771 78.6262 12.5959 78.5745 12.6053C78.5229 12.6147 78.4666 12.6241 78.415 12.6241H78.4103Z" fill="#909090"/>
<path d="M112.673 17.5547H62.1439C58.8302 17.5547 56.1439 20.241 56.1439 23.5547V115.751C56.1439 119.065 58.8302 121.751 62.1439 121.751H112.673C115.986 121.751 118.673 119.065 118.673 115.751V23.5547C118.673 20.241 115.986 17.5547 112.673 17.5547Z" fill="white"/>
<path d="M113.673 17.5547H61.1439C58.3825 17.5547 56.1439 19.7933 56.1439 22.5547V23.1433C56.1439 25.9047 58.3825 28.1433 61.1439 28.1433H113.673C116.434 28.1433 118.673 25.9047 118.673 23.1433V22.5547C118.673 19.7933 116.434 17.5547 113.673 17.5547Z" fill="#D9F0FF"/>
<path d="M63.0562 22.5986C63.0562 23.4457 62.371 24.1328 61.5264 24.1328C60.6817 24.1328 59.9966 23.4457 59.9966 22.5986C59.9966 21.7515 60.6817 21.0645 61.5264 21.0645C62.371 21.0645 63.0562 21.7515 63.0562 22.5986Z" fill="#36AF6E"/>
<path d="M66.402 24.1328C67.2469 24.1328 67.9318 23.4459 67.9318 22.5986C67.9318 21.7513 67.2469 21.0645 66.402 21.0645C65.5571 21.0645 64.8722 21.7513 64.8722 22.5986C64.8722 23.4459 65.5571 24.1328 66.402 24.1328Z" fill="#5880CC"/>
<path d="M72.8027 22.5986C72.8027 23.4457 72.1176 24.1328 71.273 24.1328C70.4283 24.1328 69.7432 23.4457 69.7432 22.5986C69.7432 21.7515 70.4283 21.0645 71.273 21.0645C72.1176 21.0645 72.8027 21.7515 72.8027 22.5986Z" fill="white"/>
<path d="M111.352 41.125H69.9166C69.1832 41.125 68.5886 41.7213 68.5886 42.4568V42.5039C68.5886 43.2394 69.1832 43.8357 69.9166 43.8357H111.352C112.086 43.8357 112.68 43.2394 112.68 42.5039V42.4568C112.68 41.7213 112.086 41.125 111.352 41.125Z" fill="#E3E3E3"/>
<path d="M100.728 56.8242H70.6488C69.9154 56.8242 69.3208 57.4205 69.3208 58.156V58.2031C69.3208 58.9386 69.9154 59.5349 70.6488 59.5349H100.728C101.462 59.5349 102.056 58.9386 102.056 58.2031V58.156C102.056 57.4205 101.462 56.8242 100.728 56.8242Z" fill="#E3E3E3"/>
<path d="M110.906 56.8242H106.397C105.663 56.8242 105.069 57.4205 105.069 58.156V58.2031C105.069 58.9386 105.663 59.5349 106.397 59.5349H110.906C111.64 59.5349 112.234 58.9386 112.234 58.2031V58.156C112.234 57.4205 111.64 56.8242 110.906 56.8242Z" fill="#E3E3E3"/>
<path d="M83.9053 49.1953H64.8862C64.1528 49.1953 63.5582 49.7916 63.5582 50.5271V50.5742C63.5582 51.3097 64.1528 51.906 64.8862 51.906H83.9053C84.6387 51.906 85.2333 51.3097 85.2333 50.5742V50.5271C85.2333 49.7916 84.6387 49.1953 83.9053 49.1953Z" fill="#C2C2C2"/>
<path d="M104.914 49.1953H90.7566C90.0232 49.1953 89.4286 49.7916 89.4286 50.5271V50.5742C89.4286 51.3097 90.0232 51.906 90.7566 51.906H104.914C105.648 51.906 106.242 51.3097 106.242 50.5742V50.5271C106.242 49.7916 105.648 49.1953 104.914 49.1953Z" fill="#C2C2C2"/>
<path d="M86.8462 94.7962C94.4204 94.7962 100.56 88.6385 100.56 81.0426C100.56 73.4467 94.4204 67.2891 86.8462 67.2891C79.272 67.2891 73.132 73.4467 73.132 81.0426C73.132 88.6385 79.272 94.7962 86.8462 94.7962Z" fill="#ECECEC"/>
<mask id="mask0_88_30825" style="mask-type:luminance" maskUnits="userSpaceOnUse" x="77" y="71" width="20" height="20">
<path d="M93.7105 87.9183C97.499 84.119 97.499 77.9591 93.7105 74.1598C89.9221 70.3605 83.7798 70.3605 79.9913 74.1598C76.2029 77.9591 76.2029 84.119 79.9913 87.9183C83.7798 91.7177 89.9221 91.7177 93.7105 87.9183Z" fill="white"/>
</mask>
<g mask="url(#mask0_88_30825)">
<path d="M93.6331 89.086C93.6331 85.8431 91.013 83.209 87.7729 83.209H86.0986C82.8649 83.209 80.2384 85.8366 80.2384 89.086V90.7651H93.6267V89.086H93.6331Z" fill="#909090"/>
<path d="M86.9422 75.4277C88.7891 75.4277 90.2909 76.9338 90.2909 78.786C90.2909 80.6382 88.7891 82.1443 86.9422 82.1443C85.0953 82.1443 83.5935 80.6382 83.5935 78.786C83.5935 76.9338 85.0953 75.4277 86.9422 75.4277Z" fill="#909090"/>
</g>
<circle cx="32.7168" cy="20.3975" r="4.77832" fill="#5880CC"/>
<circle cx="40.209" cy="33.6372" r="2.38916" fill="#36AF6E"/>
<circle cx="138.046" cy="90.2903" r="1.19458" fill="#36AF6E"/>
<circle cx="145.591" cy="109.489" r="2.71381" fill="#5880CC"/>
<circle cx="39.6635" cy="77.0612" r="1.97717" fill="#5880CC"/>
<circle cx="154.967" cy="49.6657" r="2.5329" fill="#36AF6E"/>
<circle cx="30.4714" cy="115.19" r="0.922424" fill="#36AF6E"/>
<circle cx="13.3292" cy="107.53" r="3.09607" fill="#5880CC"/>
<circle cx="154.248" cy="135.366" r="3.44604" fill="#5880CC"/>
<circle cx="153.907" cy="22.8031" r="2.37143" fill="#5880CC"/>
</svg>
