<svg width="16" height="16" viewBox="0 0 16 16" fill="none" xmlns="http://www.w3.org/2000/svg">
<path d="M10.6667 14.4992H4C2.388 14.4992 1.5 13.6112 1.5 11.9992V5.3325C1.5 3.7205 2.388 2.8325 4 2.8325H6C6.276 2.8325 6.5 3.0565 6.5 3.3325C6.5 3.6085 6.276 3.8325 6 3.8325H4C2.94867 3.8325 2.5 4.28117 2.5 5.3325V11.9992C2.5 13.0505 2.94867 13.4992 4 13.4992H10.6667C11.718 13.4992 12.1667 13.0505 12.1667 11.9992V9.99917C12.1667 9.72317 12.3907 9.49917 12.6667 9.49917C12.9427 9.49917 13.1667 9.72317 13.1667 9.99917V11.9992C13.1667 13.6112 12.2787 14.4992 10.6667 14.4992ZM13.72 3.3525L12.6466 2.27918C12.2666 1.90585 11.66 1.90583 11.28 2.28583L10.38 3.19251L12.8067 5.61916L13.7133 4.71916C14.0933 4.33916 14.0933 3.7325 13.72 3.3525ZM9.67334 3.89917L5.33333 8.25918V10.6658H7.73999L12.1 6.32583L9.67334 3.89917Z" fill="#5880CC"/>
</svg>
