<svg width="32" height="32" viewBox="0 0 32 32" fill="none" xmlns="http://www.w3.org/2000/svg">
<path d="M22.6666 2.66602H9.33329C5.65329 2.66602 2.66663 5.63935 2.66663 9.30602V17.2793V18.6127C2.66663 22.2794 5.65329 25.2527 9.33329 25.2527H11.3333C11.6933 25.2527 12.1733 25.4927 12.4 25.786L14.4 28.4394C15.28 29.6127 16.72 29.6127 17.6 28.4394L19.6 25.786C19.8533 25.4527 20.2533 25.2527 20.6666 25.2527H22.6666C26.3466 25.2527 29.3333 22.2794 29.3333 18.6127V9.30602C29.3333 5.63935 26.3466 2.66602 22.6666 2.66602ZM10.6666 15.9993C9.91996 15.9993 9.33329 15.3993 9.33329 14.666C9.33329 13.9327 9.93329 13.3327 10.6666 13.3327C11.4 13.3327 12 13.9327 12 14.666C12 15.3993 11.4133 15.9993 10.6666 15.9993ZM16 15.9993C15.2533 15.9993 14.6666 15.3993 14.6666 14.666C14.6666 13.9327 15.2666 13.3327 16 13.3327C16.7333 13.3327 17.3333 13.9327 17.3333 14.666C17.3333 15.3993 16.7466 15.9993 16 15.9993ZM21.3333 15.9993C20.5866 15.9993 20 15.3993 20 14.666C20 13.9327 20.6 13.3327 21.3333 13.3327C22.0666 13.3327 22.6666 13.9327 22.6666 14.666C22.6666 15.3993 22.08 15.9993 21.3333 15.9993Z" fill="#5880CC"/>
</svg>
