<svg width="24" height="24" viewBox="0 0 24 24" fill="none" xmlns="http://www.w3.org/2000/svg">
<path d="M20.6087 7.69507C20.2174 7.69507 19.7478 7.69507 19.513 8.08639C18.8869 9.18206 17.4 9.57334 16.3043 8.94727C15.913 8.71249 15.6782 8.47771 15.4434 8.08639C15.1304 7.61682 14.3478 7.61682 14.0347 8.08639C13.4087 9.18202 11.9217 9.57334 10.826 8.94724C10.4347 8.71245 10.1999 8.47767 9.96516 8.08635C9.65213 7.61679 8.8695 7.61679 8.55647 8.08635C7.93037 9.18202 6.44342 9.5733 5.34775 8.94724C4.95647 8.71245 4.72169 8.47767 4.48691 8.08635C4.09559 7.382 2.60864 7.61679 2.60864 8.47767V20.2168C2.60864 20.6864 2.92167 20.9994 3.39124 20.9994H20.6086C21.0782 20.9994 21.3912 20.6864 21.3912 20.2168V8.47767C21.3913 8.0081 21.0782 7.69507 20.6087 7.69507ZM19.826 15.5212C18.2608 16.6951 16.1478 16.6168 14.7391 15.2081C13.2521 16.6951 10.826 16.7733 9.3391 15.2864C9.3391 15.2864 9.3391 15.2864 9.26085 15.2081C7.85215 16.6168 5.73911 16.6951 4.17387 15.5212V11.6081C5.73911 12.782 7.85215 12.7038 9.26085 11.2951C10.7478 12.782 13.2522 12.782 14.7391 11.2951C16.1478 12.7038 18.2609 12.782 19.8261 11.6081V15.5212H19.826Z" fill="#757575"/>
<path d="M12 6.12965C12.4322 6.12965 12.7826 5.77927 12.7826 5.34705C12.7826 4.91483 12.4322 4.56445 12 4.56445C11.5678 4.56445 11.2174 4.91483 11.2174 5.34705C11.2174 5.77927 11.5678 6.12965 12 6.12965Z" fill="#757575"/>
<path d="M17.4783 7.69605C17.9105 7.69605 18.2609 7.34567 18.2609 6.91346C18.2609 6.48124 17.9105 6.13086 17.4783 6.13086C17.0461 6.13086 16.6957 6.48124 16.6957 6.91346C16.6957 7.34567 17.0461 7.69605 17.4783 7.69605Z" fill="#757575"/>
<path d="M16.6957 4.5652C17.1279 4.5652 17.4783 4.21481 17.4783 3.7826C17.4783 3.35038 17.1279 3 16.6957 3C16.2635 3 15.9131 3.35038 15.9131 3.7826C15.9131 4.21481 16.2635 4.5652 16.6957 4.5652Z" fill="#757575"/>
</svg>
