<svg width="20" height="20" viewBox="0 0 20 20" fill="none" xmlns="http://www.w3.org/2000/svg">
<path fill-rule="evenodd" clip-rule="evenodd" d="M8.57645 4H4C1.79086 4 0 5.79086 0 8V16C0 18.2091 1.79086 20 4 20H12C14.2091 20 16 18.2091 16 16V11.4236C15.674 11.4739 15.3401 11.5 15 11.5C11.4101 11.5 8.5 8.58985 8.5 5C8.5 4.65994 8.52611 4.32597 8.57645 4Z" fill="#28303F"/>
<path d="M20 5C20 7.41896 18.2822 9.43671 16 9.89998C15.6769 9.96557 15.3425 10 15 10C12.2386 10 10 7.76142 10 5C10 4.65753 10.0344 4.32311 10.1 4C10.5633 1.71776 12.581 0 15 0C17.7614 0 20 2.23858 20 5Z" fill="#28303F"/>
</svg>
