<svg width="19" height="17" viewBox="0 0 19 17" fill="none" xmlns="http://www.w3.org/2000/svg">
<path d="M15 0H3C1 0 0 1 0 3V11C0 13 1 14 3 14H10.74C10.91 14 11.05 13.86 11.05 13.69C11.05 13.65 11.04 13.61 11.03 13.57C11.01 13.38 11 13.19 11 13C11 10.24 13.24 8 16 8C16.56 8 17.1 8.09001 17.6 8.26001C17.8 8.32001 18 8.18998 18 7.97998V3C18 1 17 0 15 0ZM3 7.99902C2.448 7.99902 2 7.55102 2 6.99902C2 6.44702 2.448 5.99902 3 5.99902C3.552 5.99902 4 6.44702 4 6.99902C4 7.55202 3.552 7.99902 3 7.99902ZM9 10C7.343 10 6 8.657 6 7C6 5.343 7.343 4 9 4C10.657 4 12 5.343 12 7C12 8.657 10.657 10 9 10ZM18.53 13.53C18.384 13.676 18.192 13.75 18 13.75C17.808 13.75 17.616 13.677 17.47 13.53L16.75 12.81V16C16.75 16.414 16.414 16.75 16 16.75C15.586 16.75 15.25 16.414 15.25 16V12.811L14.53 13.531C14.237 13.824 13.762 13.824 13.469 13.531C13.176 13.238 13.176 12.763 13.469 12.47L15.469 10.47C15.762 10.177 16.237 10.177 16.53 10.47L18.53 12.47C18.823 12.762 18.823 13.238 18.53 13.53Z" fill="#28303F"/>
</svg>
