<svg width="18" height="22" viewBox="0 0 18 22" fill="none" xmlns="http://www.w3.org/2000/svg">
<path d="M18 5.1125C18 4.3225 17.53 3.6025 16.81 3.2825L9.81 0.1725C9.29 -0.0575 8.7 -0.0575 8.19 0.1725L1.19 3.2825C0.47 3.6025 0 4.3225 0 5.1125V9.8125C0 15.3625 3.84 20.5525 9 21.8125C11.3 21.2525 13.33 19.9125 14.88 18.1025L11.76 14.9825C9.82 16.2725 7.18 16.0525 5.47 14.3425C3.52 12.3925 3.52 9.2225 5.47 7.2725C7.42 5.3225 10.59 5.3225 12.54 7.2725C14.25 8.9825 14.46 11.6225 13.18 13.5625L16.08 16.4625C17.29 14.5025 18 12.1925 18 9.8125V5.1125Z" fill="#28303F"/>
<path d="M9 13.8125C10.6569 13.8125 12 12.4694 12 10.8125C12 9.15565 10.6569 7.8125 9 7.8125C7.34315 7.8125 6 9.15565 6 10.8125C6 12.4694 7.34315 13.8125 9 13.8125Z" fill="#28303F"/>
</svg>
