<svg width="36" height="36" viewBox="0 0 36 36" fill="none" xmlns="http://www.w3.org/2000/svg">
<rect width="36" height="36" rx="18" fill="#5880CC"/>
<path d="M23.3725 10.5527L12.445 13.2843C9.83415 13.9368 9.85998 17.6568 12.48 18.2735L15.8792 19.0735C15.9634 19.0935 16.0526 19.0685 16.1134 19.0068L20.0618 15.0585C20.3034 14.8168 20.7033 14.8168 20.9449 15.0585C21.1866 15.3002 21.1866 15.7002 20.9449 15.9418L16.995 19.8918C16.9341 19.9527 16.9084 20.0418 16.9284 20.126L17.7276 23.5218C18.3442 26.1418 22.0641 26.1677 22.7166 23.5568L25.4483 12.6293C25.7608 11.3743 24.625 10.2393 23.3725 10.5527Z" fill="white"/>
</svg>
