<svg width="18" height="18" viewBox="0 0 18 18" fill="none" xmlns="http://www.w3.org/2000/svg">
<path d="M9 0C6.88 0 5.02995 0.8 3.69995 2.25C2.37995 3.71 1.59009 5.81997 1.59009 8.46997V13.2C1.59009 13.366 1.72389 13.5 1.88989 13.5H16.1101C16.2761 13.5 16.4099 13.366 16.4099 13.2V8.46997C16.4099 3.17997 13.24 0 9 0ZM9 4.51099C7.487 4.51099 6.25909 5.64495 6.14209 7.14795C6.11109 7.54095 5.78302 7.83911 5.39502 7.83911C5.37502 7.83911 5.35596 7.83891 5.33496 7.83691C4.92196 7.80491 4.613 7.44401 4.646 7.03101C4.826 4.73901 6.697 3.01099 9 3.01099C9.414 3.01099 9.75 3.34699 9.75 3.76099C9.75 4.17499 9.414 4.51099 9 4.51099ZM0 16.5C0 15.672 0.672 15 1.5 15H16.501C17.329 15 18 15.671 18 16.499V18H0V16.5Z" fill="#28303F"/>
</svg>
